<?xml version="1.0" standalone="no"?>
<!DOCTYPE svg PUBLIC "-//W3C//DTD SVG 20010904//EN"
 "http://www.w3.org/TR/2001/REC-SVG-20010904/DTD/svg10.dtd">
<svg version="1.0" xmlns="http://www.w3.org/2000/svg"
 width="4677.000000pt" height="3305.000000pt" viewBox="0 0 4677.000000 3305.000000"
 preserveAspectRatio="xMidYMid meet">

<g transform="translate(0.000000,3305.000000) scale(0.100000,-0.100000)"
fill="#000000" stroke="none">
<path d="M0 16525 l0 -16525 23385 0 23385 0 0 16525 0 16525 -23385 0 -23385
0 0 -16525z m31780 12777 c354 -38 520 -81 749 -197 286 -144 562 -417 709
-704 115 -223 165 -389 199 -671 17 -138 18 -620 21 -9355 2 -6622 0 -9265 -8
-9405 -19 -343 -49 -502 -130 -709 -174 -442 -510 -778 -950 -950 -206 -81
-365 -110 -695 -131 -104 -6 -780 -10 -1737 -10 l-1568 0 0 90 0 90 -6117 3
-6118 2 -96 23 c-152 35 -245 68 -384 137 -422 209 -721 595 -827 1066 -20 91
-23 130 -23 319 0 189 3 228 23 319 137 612 587 1059 1210 1203 l97 23 6118 2
6117 3 0 335 0 335 -1940 0 -1940 0 -71 59 c-38 33 -107 78 -152 102 -50 26
-107 66 -147 105 -36 34 -88 76 -115 92 -114 70 -349 142 -605 187 -79 14
-148 25 -152 25 -4 0 -15 11 -23 24 -15 23 -15 32 5 128 26 122 35 134 142
178 490 201 1036 990 1568 2265 377 905 738 2109 979 3275 209 1008 338 1954
407 2980 21 318 30 1259 15 1575 -80 1661 -422 2908 -1055 3840 l-88 130 4 55
c5 54 5 55 105 150 447 427 1093 699 1818 765 227 21 223 20 231 49 20 81
-226 246 -494 330 -151 47 -332 86 -665 141 -153 25 -303 54 -335 64 -33 10
-160 80 -297 162 -361 218 -547 308 -825 399 -496 164 -951 162 -1443 -6 -704
-241 -1321 -781 -1679 -1469 -122 -236 -201 -445 -269 -713 -21 -84 -48 -170
-60 -191 -12 -22 -53 -63 -92 -93 -378 -285 -796 -705 -1162 -1163 -713 -892
-1279 -1982 -1649 -3173 -621 -1996 -727 -4293 -316 -6837 21 -132 44 -283 52
-335 18 -129 18 -642 0 -770 -51 -355 -140 -639 -301 -955 -223 -439 -567
-831 -1039 -1185 -101 -76 -132 -105 -152 -142 l-25 -48 -207 0 c-401 0 -691
-63 -1016 -220 -597 -289 -1026 -813 -1192 -1456 -47 -180 -64 -325 -64 -544
0 -211 15 -342 61 -530 105 -432 355 -844 690 -1136 l75 -65 -1299 4 c-1336 4
-1368 5 -1617 47 -561 94 -1042 482 -1260 1017 -81 197 -113 352 -138 668 -19
238 -19 18432 0 18678 29 366 75 555 198 800 152 303 418 569 724 722 269 135
492 185 911 204 96 4 4454 7 9684 7 7404 -2 9535 -5 9625 -14z m-8423 -2091
c90 -42 119 -130 134 -416 14 -277 29 -365 82 -470 46 -92 127 -159 236 -197
100 -35 281 -32 456 6 300 65 449 39 635 -111 113 -92 303 -377 469 -706 774
-1527 939 -3984 460 -6850 -402 -2410 -1211 -4710 -2023 -5754 -225 -289 -445
-459 -643 -497 -121 -23 -133 -38 -158 -192 -74 -463 -228 -753 -465 -875 -33
-17 -67 -24 -132 -27 -76 -4 -87 -2 -96 14 -5 11 -12 98 -16 194 -12 352 -76
665 -190 931 -72 169 -111 232 -282 459 -455 605 -674 1088 -745 1645 -18 144
-16 462 5 620 82 617 288 1047 770 1605 50 58 181 204 291 325 254 279 345
382 420 473 59 73 60 73 67 45 15 -55 25 -370 17 -523 -20 -390 -81 -698 -269
-1340 -127 -434 -141 -494 -147 -635 -4 -111 -3 -123 19 -165 28 -55 72 -85
145 -101 216 -44 533 130 825 455 493 548 859 1401 977 2281 85 628 61 1396
-75 2355 -68 481 -187 1115 -299 1595 -117 497 -132 613 -115 840 17 215 49
346 144 581 77 192 118 317 148 455 19 89 22 134 23 319 0 189 -3 227 -23 318
-123 549 -505 1033 -1192 1509 -162 113 -238 190 -290 296 -59 121 -74 190
-74 337 0 191 38 345 139 558 146 305 379 567 575 643 60 24 144 24 197 0z
m-2508 -15056 c35 -30 57 -92 102 -290 40 -179 79 -297 134 -412 49 -99 141
-229 205 -286 22 -21 40 -39 40 -42 0 -3 -658 -5 -1462 -5 l-1463 1 310 103
c634 212 1249 488 1841 828 248 143 246 142 293 103z"/>
<path d="M16350 9775 l0 -135 5720 0 5720 0 17 43 c9 23 38 84 64 135 l47 92
-5784 0 -5784 0 0 -135z"/>
<path d="M16350 8880 l0 -140 5653 0 5653 0 -3 138 -2 137 -5651 3 -5650 2 0
-140z"/>
<path d="M16350 7985 l0 -135 5795 0 5794 0 -67 135 -67 134 -5727 1 -5728 0
0 -135z"/>
</g>
</svg>
