<?xml version="1.0" standalone="no"?>
<!DOCTYPE svg PUBLIC "-//W3C//DTD SVG 20010904//EN"
 "http://www.w3.org/TR/2001/REC-SVG-20010904/DTD/svg10.dtd">
<svg version="1.0" xmlns="http://www.w3.org/2000/svg"
 width="4677.000000pt" height="3305.000000pt" viewBox="0 0 4677.000000 3305.000000"
 preserveAspectRatio="xMidYMid meet">

<g transform="translate(0.000000,3305.000000) scale(0.100000,-0.100000)"
fill="#000000" stroke="none">
<path d="M24420 28314 c-855 -78 -1675 -659 -2100 -1489 -106 -208 -178 -400
-241 -644 -22 -85 -48 -167 -57 -183 -9 -15 -59 -61 -112 -101 -554 -426
-1140 -1100 -1597 -1837 -984 -1585 -1493 -3558 -1493 -5780 0 -863 74 -1733
230 -2710 54 -338 62 -425 62 -655 -1 -648 -200 -1205 -616 -1725 -143 -178
-412 -433 -620 -587 -128 -95 -144 -110 -167 -155 l-19 -38 -198 0 c-283 0
-455 -25 -682 -100 -655 -215 -1176 -768 -1345 -1428 -44 -172 -57 -271 -62
-467 -6 -224 9 -365 61 -567 206 -805 887 -1409 1714 -1523 101 -13 717 -15
5752 -15 l5640 0 0 305 0 305 -5637 3 c-5213 3 -5644 4 -5718 20 -219 45 -408
124 -577 239 -112 76 -272 234 -351 345 -115 162 -204 369 -244 571 -27 134
-24 413 6 552 119 557 527 970 1100 1113 l86 22 5668 2 5667 3 0 310 0 310
-1794 0 -1795 0 -63 55 c-35 30 -99 74 -143 97 -47 24 -101 63 -132 94 -28 28
-78 67 -110 87 -114 68 -328 134 -574 176 -138 24 -148 27 -154 55 -6 24 26
180 43 213 7 12 40 32 79 48 491 196 1017 969 1528 2245 889 2217 1384 5233
1219 7432 -103 1388 -433 2478 -989 3267 -69 98 -62 152 32 242 432 412 1049
671 1733 729 74 6 145 13 156 15 85 18 -33 153 -211 243 -182 91 -380 143
-830 217 -344 56 -325 49 -626 233 -492 300 -913 444 -1334 456 -77 2 -160 2
-185 0z m-511 -1014 c34 -10 85 -50 102 -82 24 -44 40 -150 49 -326 6 -106 17
-227 25 -269 39 -203 155 -321 348 -354 90 -15 187 -7 347 27 271 58 410 33
583 -105 177 -142 503 -730 678 -1229 398 -1127 522 -2648 358 -4402 -255
-2729 -1189 -5689 -2144 -6790 -171 -197 -334 -310 -497 -344 -108 -23 -129
-44 -142 -141 -58 -427 -213 -732 -429 -842 -57 -29 -187 -44 -210 -24 -10 8
-16 53 -20 168 -16 423 -111 796 -269 1063 -24 41 -100 149 -168 240 -294 393
-461 690 -575 1021 -74 215 -111 405 -125 638 -24 400 62 845 230 1199 144
302 316 530 806 1067 120 133 259 289 309 348 49 58 93 103 97 99 13 -14 30
-328 23 -452 -20 -387 -79 -688 -246 -1258 -103 -354 -138 -497 -145 -602 -10
-141 23 -213 113 -244 268 -92 692 200 1046 719 397 584 645 1351 697 2160 51
809 -90 2033 -380 3280 -105 450 -101 428 -107 615 -9 280 20 429 142 735 121
304 149 435 149 695 0 153 -4 203 -22 287 -108 500 -448 934 -1083 1383 -79
57 -159 117 -177 134 -54 50 -119 156 -149 241 -26 74 -28 91 -27 230 1 129 4
164 27 247 99 370 379 753 625 854 62 26 108 30 161 14z m-2291 -13930 c32
-30 45 -67 87 -246 80 -339 159 -507 304 -649 28 -27 51 -53 51 -57 0 -4 -608
-8 -1352 -8 -743 0 -1349 2 -1347 4 2 3 85 30 184 61 228 72 544 190 795 296
240 102 749 356 965 480 267 155 272 157 313 119z"/>
<path d="M17450 11165 l0 -125 5291 2 5290 3 59 123 59 122 -5350 0 -5349 0 0
-125z"/>
<path d="M17454 10457 c-2 -7 -3 -65 -2 -128 l3 -114 5228 -3 5227 -2 0 130 0
130 -5225 0 c-4301 0 -5227 -2 -5231 -13z"/>
<path d="M17450 9515 l0 -125 5361 0 c2948 0 5359 3 5357 8 -2 4 -30 60 -63
125 l-60 117 -5297 0 -5298 0 0 -125z"/>
</g>
</svg>
